<?xml version="1.0" encoding="UTF-8"?>
<svg id="uuid-61d96ac2-5771-4302-95cd-5123c0fe0bc9" data-name="Layer 1" xmlns="http://www.w3.org/2000/svg" viewBox="0 0 5000 3000">
  <defs>
    <style>
      .uuid-5dae3ca8-b047-4131-8f48-056b3a14ce0f {
      }

      .uuid-5dae3ca8-b047-4131-8f48-056b3a14ce0f, .uuid-1744c22d-b157-44ff-a4fa-2ee2d2dba3db, .uuid-3caa8fc8-5466-4f92-8499-04f762a975a4 {
        stroke-width: 0px;
      }

      .uuid-1744c22d-b157-44ff-a4fa-2ee2d2dba3db {
        fill: #1e4b7e;
      }

      .uuid-3caa8fc8-5466-4f92-8499-04f762a975a4 {
        fill: #01b1e0;
        fill-rule: evenodd;
      }
    </style>
  </defs>
  <path class="uuid-3caa8fc8-5466-4f92-8499-04f762a975a4" d="m1396.75,1421.22l108.68,62.75,233.24-139.97c-13.8-17.1-22.12-29.45-42.14-37.45-24.39-9.75-52.63-13.1-82.58-10.74l-217.21,125.42Z"/>
  <polygon class="uuid-3caa8fc8-5466-4f92-8499-04f762a975a4" points="1514.68 1499.94 1514.68 1774.26 1628.82 1708.37 1628.81 1708.35 1737.23 1645.75 1736.88 1376.59 1514.68 1499.94"/>
  <path class="uuid-3caa8fc8-5466-4f92-8499-04f762a975a4" d="m1267.88,1346.81l110.42,63.75,224.43-129.58c.73-6.78-11.39.36-13.54-5.63-3.61-10.07.36-32.65-9.5-39.84-10.22-7.46-23.17-12.97-37.63-15.8-19.25-3.77-40.97-2.73-62.37,4.79l-97.64,56.37v.02s-114.17,65.92-114.17,65.92Z"/>
  <polygon class="uuid-3caa8fc8-5466-4f92-8499-04f762a975a4" points="1380.19 1447.43 1380.19 1721.77 1488.83 1784.49 1488.83 1510.15 1380.19 1447.43"/>
  <polygon class="uuid-3caa8fc8-5466-4f92-8499-04f762a975a4" points="1359.79 1710.09 1359.79 1435.78 1350.59 1430.47 1359.79 1435.78 1350.6 1430.47 1249.42 1372.06 1249.42 1503.87 1249.42 1646.36 1359.79 1710.09"/>
  <path class="uuid-1744c22d-b157-44ff-a4fa-2ee2d2dba3db" d="m1343.2,1426.53l-9.2-5.31m36.9,0l108.69,62.75,242.43-139.97c-13.8-17.1-31.3-29.45-51.32-37.45-24.39-9.75-52.62-13.1-82.58-10.74l-217.22,125.42Zm117.94,78.72v274.33l114.14-65.9v-.02s123.37-71.24,123.37-71.24v-274.31l-237.51,137.13Zm-274.51-158.44l9.25-5.34,123.38-71.23h.03l98.39-56.8.71-.41.77-.28c25.01-8.97,50.42-10.25,72.88-5.85,17.04,3.34,32.5,9.98,44.93,19.05,12.8,9.33,22.4,21.28,27.29,34.92,2.42,6.76,3.7,13.89,3.63,21.26,29.39-1.28,57.28,2.73,81.96,12.6,23.79,9.51,44.51,24.43,60.61,45.26l6.67,9.32v303.75l-4.62,2.67-128,73.91h-.04l-123.34,71.21-9.25,5.34-9.25-5.34-122.48-70.71-.86-.5h-.03l-128.01-73.91-4.63-2.67v-306.25Zm27.7,5.32l110.42,63.75,224.43-129.58c.73-6.78-.11-13.23-2.25-19.22-3.61-10.07-10.93-19.05-20.78-26.25-10.22-7.46-23.17-12.97-37.63-15.8-19.25-3.77-40.97-2.73-62.38,4.79l-97.64,56.37v.02s-114.16,65.92-114.16,65.92Zm119.67,90.4v274.33l108.64,62.72v-274.33l-108.64-62.73Zm-18.5,263.63v-274.31l-110.37-63.72v274.31l110.37,63.73Z"/>
  <path class="uuid-1744c22d-b157-44ff-a4fa-2ee2d2dba3db" d="m3701.79,1517.78l81.18-83.11h-56.82l-84.66,90.46v-168.54h-47.16v282.2h47.16v-58.38l28.61-29.76,61.47,88.14h54.12l-83.89-121Zm-186.62,19.71c0,9.02-1.42,17.46-4.25,25.32-2.77,7.86-6.89,14.75-12.24,20.68-5.41,5.93-11.85,10.63-19.39,14.11-7.61,3.48-16.11,5.22-25.58,5.22-8.95,0-17.2-1.74-24.8-5.22-7.53-3.48-14.04-8.18-19.59-14.11-5.47-5.93-9.79-12.96-12.82-21.07-3.1-8.12-4.64-16.69-4.64-25.71s1.41-17.46,4.25-25.32c2.77-7.86,6.9-14.75,12.24-20.68,5.42-5.93,11.86-10.63,19.4-14.11,7.6-3.48,15.97-5.22,25.19-5.22s17.58,1.74,25.19,5.22c7.54,3.48,14.04,8.24,19.58,14.3,5.48,6.05,9.79,13.08,12.82,21.07,3.09,7.99,4.64,16.5,4.64,25.51Zm47.16-.77c0-14.69-2.71-28.48-8.12-41.36-5.41-12.89-12.95-24.16-22.62-33.83-9.67-9.66-21.13-17.27-34.41-22.81-13.27-5.55-27.76-8.31-43.49-8.31s-30.22,2.83-43.49,8.5c-13.27,5.67-24.74,13.34-34.4,23-9.66,9.67-17.27,21.01-22.81,34.02-5.54,13.01-8.31,26.86-8.31,41.55s2.71,28.41,8.12,41.17c5.41,12.76,12.95,23.97,22.61,33.63,9.66,9.67,21.13,17.27,34.41,22.81,13.27,5.54,27.63,8.31,43.1,8.31s30.28-2.83,43.68-8.5c13.41-5.66,24.94-13.34,34.6-23,9.67-9.67,17.27-20.94,22.81-33.83,5.54-12.89,8.31-26.67,8.31-41.36Zm-285.58.77c0,9.02-1.42,17.46-4.25,25.32-2.77,7.86-6.89,14.75-12.24,20.68-5.41,5.93-11.85,10.63-19.39,14.11-7.6,3.48-16.11,5.22-25.58,5.22-8.95,0-17.2-1.74-24.8-5.22-7.53-3.48-14.05-8.18-19.59-14.11-5.48-5.93-9.8-12.96-12.82-21.07-3.1-8.12-4.64-16.69-4.64-25.71s1.41-17.46,4.25-25.32c2.77-7.86,6.89-14.75,12.24-20.68,5.41-5.93,11.85-10.63,19.39-14.11,7.6-3.48,15.97-5.22,25.19-5.22s17.58,1.74,25.19,5.22c7.54,3.48,14.05,8.24,19.58,14.3,5.48,6.05,9.79,13.08,12.82,21.07,3.1,7.99,4.64,16.5,4.64,25.51Zm47.16-.77c0-14.69-2.71-28.48-8.12-41.36-5.41-12.89-12.95-24.16-22.62-33.83-9.67-9.66-21.13-17.27-34.41-22.81-13.27-5.55-27.76-8.31-43.49-8.31s-30.22,2.83-43.49,8.5c-13.27,5.67-24.74,13.34-34.4,23-9.67,9.67-17.27,21.01-22.81,34.02-5.54,13.01-8.31,26.86-8.31,41.55s2.71,28.41,8.12,41.17c5.41,12.76,12.95,23.97,22.62,33.63,9.66,9.67,21.13,17.27,34.41,22.81,13.27,5.54,27.63,8.31,43.1,8.31s30.28-2.83,43.68-8.5c13.4-5.66,24.93-13.34,34.6-23,9.67-9.67,17.27-20.94,22.81-33.83,5.54-12.89,8.31-26.67,8.31-41.36Zm-338.8,59.92h-78.61v-74.22h75.19c18.75,0,32.66,3.22,41.81,9.67,9.08,6.44,13.66,15.46,13.66,27.06,0,12.37-4.64,21.71-13.85,28.03-9.28,6.31-21.97,9.47-38.21,9.47Zm-13.85-114.03h-64.75v-72.29h68.17c15.46,0,27.19,3.03,35.31,9.15,8.05,6.06,12.11,14.69,12.11,25.83,0,12.69-4.64,22.1-13.86,28.16-9.27,6.12-21.58,9.15-36.98,9.15Zm9.28-114.43h-121.19v270.61h125.06c14.88,0,28.54-1.61,40.91-4.83,12.31-3.22,22.88-7.99,31.64-14.24,8.76-6.32,15.47-14.11,20.23-23.39,4.77-9.28,7.15-19.91,7.15-32.03,0-9.28-1.29-17.46-3.87-24.48-2.51-7.09-6.18-13.21-10.95-18.36-4.71-5.15-10.38-9.6-16.88-13.34-6.58-3.67-13.79-6.96-21.71-9.79,4.83-2.58,9.67-5.67,14.37-9.34,4.7-3.61,8.83-7.8,12.31-12.57,3.41-4.77,6.25-10.37,8.38-16.81,2.19-6.5,3.28-13.85,3.28-22.1,0-21.46-7.99-38.34-23.9-50.71-15.98-12.43-37.56-18.62-64.82-18.62Zm-236.29,156.56l83.89-85.82h-37.11l-107.85,112.49v-194.83h-29.77v282.2h29.77v-52.19l40.59-40.98,71.51,93.17h35.57l-86.59-114.04Zm-124.38,79.64l-18.94-17.79c-7.99,8.51-16.94,15.59-26.87,21.27-9.92,5.66-21.32,8.5-34.21,8.5-10.57,0-20.29-1.99-29.19-5.99-8.89-3.99-16.63-9.47-23.19-16.56-6.57-7.09-11.73-15.4-15.47-24.87-3.73-9.53-5.6-19.65-5.6-30.47s1.8-20.87,5.41-30.28c3.6-9.34,8.63-17.59,15.08-24.68,6.44-7.09,14.04-12.56,22.8-16.55,8.77-4,18.18-6,28.22-6,13.66,0,25.19,2.96,34.6,8.9,9.41,5.92,18.1,13.01,26.09,21.26l19.71-20.87c-4.64-4.89-9.66-9.53-15.08-13.92-5.41-4.38-11.34-8.18-17.78-11.4-6.44-3.22-13.53-5.73-21.27-7.54-7.73-1.8-16.36-2.71-25.89-2.71-14.69,0-28.29,2.77-40.79,8.31-12.5,5.55-23.33,13.08-32.47,22.62-9.15,9.54-16.3,20.68-21.46,33.44-5.15,12.76-7.73,26.22-7.73,40.4s2.58,27.57,7.73,40.2c5.16,12.63,12.31,23.65,21.46,33.05,9.15,9.4,19.98,16.88,32.47,22.43,12.5,5.54,26.09,8.31,40.79,8.31,18.81,0,34.59-3.67,47.35-10.95,12.76-7.35,24.16-16.69,34.21-28.09Zm-240.35-65.14c0,10.82-1.8,20.87-5.41,30.28-3.61,9.34-8.63,17.53-15.08,24.49-6.44,6.96-14.17,12.37-23.19,16.36-9.02,4-18.94,5.99-29.77,5.99s-20.36-2.05-29.38-6.18c-9.02-4.12-16.82-9.6-23.39-16.56-6.57-6.96-11.72-15.21-15.46-24.68-3.73-9.53-5.6-19.65-5.6-30.47s1.8-20.87,5.41-30.28c3.6-9.34,8.57-17.59,14.88-24.68,6.32-7.09,13.98-12.56,23-16.55,9.03-4,18.94-6,29.77-6s20.36,2.07,29.38,6.19c9.02,4.12,16.88,9.67,23.59,16.75,6.7,7.09,11.92,15.34,15.66,24.88,3.74,9.53,5.6,19.65,5.6,30.47Zm30.54-.58c0-14.17-2.58-27.57-7.73-40.2-5.15-12.63-12.37-23.65-21.65-33.05-9.28-9.4-20.29-16.88-33.05-22.42-12.76-5.54-26.61-8.31-41.56-8.31s-29.18,2.77-41.94,8.31c-12.75,5.55-23.77,13.08-33.05,22.62-9.28,9.54-16.5,20.68-21.65,33.44-5.15,12.76-7.73,26.22-7.73,40.4s2.57,27.57,7.73,40.2c5.15,12.63,12.37,23.65,21.65,33.05,9.28,9.4,20.23,16.88,32.85,22.43,12.63,5.54,26.42,8.31,41.37,8.31s28.87-2.77,41.75-8.31c12.88-5.55,23.97-13.08,33.25-22.62,9.28-9.54,16.56-20.68,21.84-33.44,5.28-12.76,7.93-26.22,7.93-40.4Zm-249.63,100.12v-282.2h-29.76v282.2h29.76Zm-169.8-27.06h-90.65v-95.87h85.24c23.65,0,41.49,4.06,53.6,12.24,12.05,8.12,18.1,19.72,18.1,34.73s-5.93,27.58-17.72,36.08c-11.85,8.57-28.02,12.82-48.58,12.82Zm-10.83-122.93h-79.82v-93.55h82.14c19.27,0,34.02,4,44.33,12.05,10.25,7.99,15.4,18.87,15.4,32.6,0,16.04-5.8,28.22-17.33,36.47-11.6,8.31-26.49,12.43-44.72,12.43Zm4.64-120.61h-115v270.61h120.03c14.63,0,28.02-1.68,40.14-5.03,12.05-3.35,22.42-8.18,31.06-14.5,8.63-6.31,15.2-14.11,19.84-23.39,4.64-9.28,6.96-19.71,6.96-31.31,0-9.27-1.54-17.52-4.64-24.74-3.09-7.21-7.21-13.4-12.37-18.55-5.09-5.15-11.21-9.6-18.3-13.34-7.08-3.74-14.62-6.76-22.55-9.08,5.35-2.32,10.57-5.22,15.6-8.7,5.03-3.48,9.6-7.8,13.72-12.95,4.06-5.15,7.35-11.08,9.79-17.78,2.45-6.7,3.67-14.56,3.67-23.58,0-10.31-2.06-19.65-6.18-28.03-4.13-8.37-10.05-15.46-17.72-21.26-7.73-5.8-17-10.31-27.76-13.53-10.83-3.22-22.94-4.83-36.28-4.83Z"/>
</svg>